<svg version="1.2" xmlns="http://www.w3.org/2000/svg" viewBox="0 0 174 26" width="174" height="26">
	<title>dark-logo-svg</title>
	<style>
		tspan { white-space:pre } 
		.s0 { fill: #615dff } 
		.s1 { mix-blend-mode: multiply;fill: #3dd9eb } 
		.t2 { font-size: 24px;fill: #000000;font-weight: 700;font-family: "Arima-Bold", "Arima" } 
	</style>
	<path id="Layer" class="s0" d="m20.1 26c2.8 0 5.1-2.3 4.6-5q-0.5-2.5-1.5-4.9c-1.2-3.2-3.1-6.1-5.4-8.5-2.4-2.4-5.1-4.3-8.2-5.6q-2.2-1-4.6-1.5c-2.7-0.6-5 1.7-5 4.5v16c0 2.8 2.2 5 5 5z"/>
	<g id="Layer">
		<path id="Layer" class="s1" d="m13.7 26c-2.8 0-5-2.3-4.5-5q0.4-2.5 1.4-4.9c1.3-3.2 3.1-6.1 5.5-8.5 2.3-2.4 5.1-4.3 8.1-5.6q2.3-1 4.7-1.5c2.7-0.6 4.9 1.7 4.9 4.5v16c0 2.8-2.2 5-5 5z"/>
		<text id="DISFAR" style="transform: matrix(.974,0,0,.974,45.026,21.538)" >
			<tspan x="0" y="0" class="t2">D</tspan><tspan  y="0" class="t2">I</tspan><tspan  y="0" class="t2">S</tspan><tspan  y="0" class="t2">F</tspan><tspan  y="0" class="t2">A</tspan><tspan  y="0" class="t2">R</tspan><tspan  y="0" class="t2">
</tspan>
		</text>
	</g>
</svg>